<svg xmlns="http://www.w3.org/2000/svg" viewBox="0 0 640 360"><defs><radialGradient id="bg" cx="82%" cy="16%" r="80%"><stop offset="0" stop-color="#aeb7c2" stop-opacity=".30"/><stop offset=".45" stop-color="#aeb7c2" stop-opacity=".08"/><stop offset="1" stop-color="#071322"/></radialGradient><linearGradient id="g" x1="0" x2="1"><stop offset="0" stop-color="#d9d9d9"/><stop offset="1" stop-color="#fff0bb"/></linearGradient></defs><rect width="640" height="360" rx="34" fill="#06111f"/><rect x="8" y="8" width="624" height="344" rx="28" fill="url(#bg)" stroke="#d9d9d9" stroke-opacity=".34" stroke-width="1.5"/><path d="M22 76 C140 26 218 92 316 54 C422 16 506 34 620 78" fill="none" stroke="#d9d9d9" stroke-opacity=".18" stroke-width="3"/><path d="M20 292 C142 256 226 316 340 284 C454 252 522 260 620 302" fill="none" stroke="#aeb7c2" stroke-opacity=".18" stroke-width="4"/><circle cx="500" cy="80" r="114" fill="#aeb7c2" opacity=".07"/><circle cx="108" cy="292" r="90" fill="#d9d9d9" opacity=".07"/><g transform="translate(106 74)"><path d="M170 170 C112 126 110 70 170 18 C222 74 222 126 170 170Z" fill="#edf0f2"/><path d="M202 172 C168 108 182 48 250 8 C282 82 270 135 202 172Z" fill="#cbd2da"/><path d="M136 172 C70 142 50 86 92 30 C156 82 174 130 136 172Z" fill="#f7f8f9"/><path d="M170 170 C170 214 146 242 112 272" fill="none" stroke="#a4abb3" stroke-width="7" stroke-linecap="round"/><path d="M196 168 C230 198 270 208 318 190" fill="none" stroke="#d3d8dd" stroke-width="7" stroke-linecap="round"/><circle cx="171" cy="170" r="10" fill="#d9d9d9"/></g></svg>