<svg xmlns="http://www.w3.org/2000/svg" viewBox="0 0 640 360"><defs><radialGradient id="bg" cx="82%" cy="16%" r="80%"><stop offset="0" stop-color="#c99b58" stop-opacity=".30"/><stop offset=".45" stop-color="#c99b58" stop-opacity=".08"/><stop offset="1" stop-color="#071322"/></radialGradient><linearGradient id="g" x1="0" x2="1"><stop offset="0" stop-color="#e1b86b"/><stop offset="1" stop-color="#fff0bb"/></linearGradient></defs><rect width="640" height="360" rx="34" fill="#06111f"/><rect x="8" y="8" width="624" height="344" rx="28" fill="url(#bg)" stroke="#e1b86b" stroke-opacity=".34" stroke-width="1.5"/><path d="M22 76 C140 26 218 92 316 54 C422 16 506 34 620 78" fill="none" stroke="#e1b86b" stroke-opacity=".18" stroke-width="3"/><path d="M20 292 C142 256 226 316 340 284 C454 252 522 260 620 302" fill="none" stroke="#c99b58" stroke-opacity=".18" stroke-width="4"/><circle cx="500" cy="80" r="114" fill="#c99b58" opacity=".07"/><circle cx="108" cy="292" r="90" fill="#e1b86b" opacity=".07"/><g transform="translate(122 60)"><rect x="120" y="88" width="178" height="132" rx="22" fill="#a76b36"/><rect x="152" y="58" width="112" height="42" rx="18" fill="none" stroke="#d7a84f" stroke-width="12"/><rect x="120" y="120" width="178" height="30" fill="#7b4b27" opacity=".50"/><circle cx="158" cy="154" r="8" fill="#f1d08a"/><circle cx="260" cy="154" r="8" fill="#f1d08a"/><path d="M360 120 h72 c0 74 -72 74 -72 0z" fill="#f1eee5"/><path d="M432 132 c42 8 42 54 0 62" fill="none" stroke="#f1eee5" stroke-width="12" stroke-linecap="round"/><path d="M348 212 h100" stroke="#d7a84f" stroke-width="10" stroke-linecap="round"/></g></svg>