<svg xmlns="http://www.w3.org/2000/svg" viewBox="0 0 640 360"><defs><radialGradient id="bg" cx="82%" cy="16%" r="80%"><stop offset="0" stop-color="#19d3e0" stop-opacity=".30"/><stop offset=".45" stop-color="#19d3e0" stop-opacity=".08"/><stop offset="1" stop-color="#071322"/></radialGradient><linearGradient id="g" x1="0" x2="1"><stop offset="0" stop-color="#d7a84f"/><stop offset="1" stop-color="#fff0bb"/></linearGradient></defs><rect width="640" height="360" rx="34" fill="#06111f"/><rect x="8" y="8" width="624" height="344" rx="28" fill="url(#bg)" stroke="#d7a84f" stroke-opacity=".34" stroke-width="1.5"/><path d="M22 76 C140 26 218 92 316 54 C422 16 506 34 620 78" fill="none" stroke="#d7a84f" stroke-opacity=".18" stroke-width="3"/><path d="M20 292 C142 256 226 316 340 284 C454 252 522 260 620 302" fill="none" stroke="#19d3e0" stroke-opacity=".18" stroke-width="4"/><circle cx="500" cy="80" r="114" fill="#19d3e0" opacity=".07"/><circle cx="108" cy="292" r="90" fill="#d7a84f" opacity=".07"/><g transform="translate(142 64)"><rect x="80" y="40" width="260" height="190" rx="24" fill="#f1f4f8"/><rect x="80" y="40" width="260" height="54" rx="24" fill="#d34b42"/><rect x="80" y="82" width="260" height="34" fill="#fff"/><rect x="80" y="116" width="260" height="34" fill="#1f8f4e"/><rect x="118" y="170" width="36" height="28" rx="7" fill="#6b8aa7" opacity=".55"/><rect x="178" y="170" width="36" height="28" rx="7" fill="#6b8aa7" opacity=".55"/><rect x="238" y="170" width="36" height="28" rx="7" fill="#6b8aa7" opacity=".55"/><path d="M382 64 L382 210" stroke="#d7a84f" stroke-width="10" stroke-linecap="round"/><path d="M382 74 C438 58 454 110 510 88 L510 164 C454 188 438 136 382 154 Z" fill="#18a2a9"/></g></svg>