<svg xmlns="http://www.w3.org/2000/svg" viewBox="0 0 640 360"><defs><radialGradient id="bg" cx="82%" cy="16%" r="80%"><stop offset="0" stop-color="#19d3e0" stop-opacity=".30"/><stop offset=".45" stop-color="#19d3e0" stop-opacity=".08"/><stop offset="1" stop-color="#071322"/></radialGradient><linearGradient id="g" x1="0" x2="1"><stop offset="0" stop-color="#e1b86b"/><stop offset="1" stop-color="#fff0bb"/></linearGradient></defs><rect width="640" height="360" rx="34" fill="#06111f"/><rect x="8" y="8" width="624" height="344" rx="28" fill="url(#bg)" stroke="#e1b86b" stroke-opacity=".34" stroke-width="1.5"/><path d="M22 76 C140 26 218 92 316 54 C422 16 506 34 620 78" fill="none" stroke="#e1b86b" stroke-opacity=".18" stroke-width="3"/><path d="M20 292 C142 256 226 316 340 284 C454 252 522 260 620 302" fill="none" stroke="#19d3e0" stroke-opacity=".18" stroke-width="4"/><circle cx="500" cy="80" r="114" fill="#19d3e0" opacity=".07"/><circle cx="108" cy="292" r="90" fill="#e1b86b" opacity=".07"/><g transform="translate(0 4)"><ellipse cx="276" cy="168" rx="66" ry="48" fill="none" stroke="url(#g)" stroke-width="18"/><ellipse cx="342" cy="168" rx="66" ry="48" fill="none" stroke="#f0d28d" stroke-width="18" opacity=".94"/><circle cx="324" cy="106" r="18" fill="#fff4c8"/><path d="M307 101 L324 72 L342 101 Z" fill="#d7a84f"/><g transform="translate(196 210)"><ellipse cx="0" cy="0" rx="25" ry="10" fill="#f6efe1" transform="rotate(18)"/><ellipse cx="22" cy="-12" rx="25" ry="10" fill="#f6efe1" transform="rotate(62)"/><ellipse cx="45" cy="0" rx="25" ry="10" fill="#f6efe1" transform="rotate(120)"/><circle cx="23" cy="-1" r="9" fill="#d7a84f"/></g></g></svg>