<svg xmlns="http://www.w3.org/2000/svg" viewBox="0 0 640 360"><defs><radialGradient id="bg" cx="82%" cy="16%" r="80%"><stop offset="0" stop-color="#58d9a3" stop-opacity=".30"/><stop offset=".45" stop-color="#58d9a3" stop-opacity=".08"/><stop offset="1" stop-color="#071322"/></radialGradient><linearGradient id="g" x1="0" x2="1"><stop offset="0" stop-color="#bde8a7"/><stop offset="1" stop-color="#fff0bb"/></linearGradient></defs><rect width="640" height="360" rx="34" fill="#06111f"/><rect x="8" y="8" width="624" height="344" rx="28" fill="url(#bg)" stroke="#bde8a7" stroke-opacity=".34" stroke-width="1.5"/><path d="M22 76 C140 26 218 92 316 54 C422 16 506 34 620 78" fill="none" stroke="#bde8a7" stroke-opacity=".18" stroke-width="3"/><path d="M20 292 C142 256 226 316 340 284 C454 252 522 260 620 302" fill="none" stroke="#58d9a3" stroke-opacity=".18" stroke-width="4"/><circle cx="500" cy="80" r="114" fill="#58d9a3" opacity=".07"/><circle cx="108" cy="292" r="90" fill="#bde8a7" opacity=".07"/><g transform="translate(122 54)"><rect x="210" y="64" width="70" height="152" rx="30" fill="#f0f7e8" stroke="#c2e4b0" stroke-width="8"/><rect x="224" y="28" width="42" height="54" rx="15" fill="#c7fff0"/><rect x="227" y="18" width="36" height="22" rx="9" fill="#f8f4c8"/><circle cx="138" cy="156" r="54" fill="#ffe0c8"/><circle cx="120" cy="148" r="8" fill="#163047"/><circle cx="155" cy="148" r="8" fill="#163047"/><path d="M124 170 C138 184 154 181 164 168" fill="none" stroke="#c57f65" stroke-width="6" stroke-linecap="round"/><path d="M92 128 C109 82 170 82 185 128" fill="#ffd5b7"/><circle cx="350" cy="170" r="36" fill="#f1d48b"/><circle cx="316" cy="144" r="16" fill="#f1d48b"/><circle cx="384" cy="144" r="16" fill="#f1d48b"/><circle cx="338" cy="166" r="5" fill="#593b24"/><circle cx="362" cy="166" r="5" fill="#593b24"/><path d="M342 184 C354 192 366 188 372 180" fill="none" stroke="#593b24" stroke-width="4" stroke-linecap="round"/></g></svg>