<svg xmlns="http://www.w3.org/2000/svg" viewBox="0 0 640 360"><defs><radialGradient id="bg" cx="82%" cy="16%" r="80%"><stop offset="0" stop-color="#5cd7ff" stop-opacity=".30"/><stop offset=".45" stop-color="#5cd7ff" stop-opacity=".08"/><stop offset="1" stop-color="#071322"/></radialGradient><linearGradient id="g" x1="0" x2="1"><stop offset="0" stop-color="#e2b85d"/><stop offset="1" stop-color="#fff0bb"/></linearGradient></defs><rect width="640" height="360" rx="34" fill="#06111f"/><rect x="8" y="8" width="624" height="344" rx="28" fill="url(#bg)" stroke="#e2b85d" stroke-opacity=".34" stroke-width="1.5"/><path d="M22 76 C140 26 218 92 316 54 C422 16 506 34 620 78" fill="none" stroke="#e2b85d" stroke-opacity=".18" stroke-width="3"/><path d="M20 292 C142 256 226 316 340 284 C454 252 522 260 620 302" fill="none" stroke="#5cd7ff" stroke-opacity=".18" stroke-width="4"/><circle cx="500" cy="80" r="114" fill="#5cd7ff" opacity=".07"/><circle cx="108" cy="292" r="90" fill="#e2b85d" opacity=".07"/><g transform="translate(130 68)"><rect x="96" y="170" width="54" height="70" rx="12" fill="#d7a84f"/><rect x="178" y="130" width="54" height="110" rx="12" fill="#e2b85d"/><rect x="260" y="84" width="54" height="156" rx="12" fill="#f1d38b"/><path d="M88 112 C162 94 234 62 330 20" fill="none" stroke="#f1d38b" stroke-width="16" stroke-linecap="round"/><path d="M326 20 L306 86 L372 56 Z" fill="#f1d38b"/><circle cx="396" cy="92" r="34" fill="#d7a84f"/><path d="M386 92 L395 102 L413 80" fill="none" stroke="#092033" stroke-width="8" stroke-linecap="round" stroke-linejoin="round"/></g></svg>