<svg xmlns="http://www.w3.org/2000/svg" viewBox="0 0 640 360"><defs><radialGradient id="bg" cx="82%" cy="16%" r="80%"><stop offset="0" stop-color="#59d7d0" stop-opacity=".30"/><stop offset=".45" stop-color="#59d7d0" stop-opacity=".08"/><stop offset="1" stop-color="#071322"/></radialGradient><linearGradient id="g" x1="0" x2="1"><stop offset="0" stop-color="#e1b86b"/><stop offset="1" stop-color="#fff0bb"/></linearGradient></defs><rect width="640" height="360" rx="34" fill="#06111f"/><rect x="8" y="8" width="624" height="344" rx="28" fill="url(#bg)" stroke="#e1b86b" stroke-opacity=".34" stroke-width="1.5"/><path d="M22 76 C140 26 218 92 316 54 C422 16 506 34 620 78" fill="none" stroke="#e1b86b" stroke-opacity=".18" stroke-width="3"/><path d="M20 292 C142 256 226 316 340 284 C454 252 522 260 620 302" fill="none" stroke="#59d7d0" stroke-opacity=".18" stroke-width="4"/><circle cx="500" cy="80" r="114" fill="#59d7d0" opacity=".07"/><circle cx="108" cy="292" r="90" fill="#e1b86b" opacity=".07"/><g transform="translate(118 70)"><circle cx="120" cy="72" r="44" fill="#d7a84f"/><circle cx="300" cy="72" r="44" fill="#e8d2a2"/><path d="M68 222 C78 150 160 150 172 222 Z" fill="#1d9aa5"/><path d="M248 222 C258 150 342 150 354 222 Z" fill="#d7a84f"/><path d="M184 160 L240 190" stroke="#f3d899" stroke-width="28" stroke-linecap="round"/><path d="M230 190 L286 160" stroke="#d6eff3" stroke-width="28" stroke-linecap="round"/><path d="M180 160 L226 184 C240 192 256 192 270 184 L314 160" fill="none" stroke="#103043" stroke-width="8" stroke-linecap="round"/></g></svg>